PathFileType	4	(X/Y/Z)	/Users/itak/Documents/Research/Walk-IL/dataset/trc/00440_00167.trc
DataRate	CameraRate	NumFrames	NumMarkers	Units	OrigDataRate	OrigDataStartFrame	OrigNumFrames
100.000000	100.000000	4	53	mm	100.000000	306	490
Frame#	Time	RPSI			LPSI			L3			STRN			T10			C7			CLAV			RBAK			LBAK			LSHO			LUPA			LAEL			LAOL			LWTS			LWPS			LFRA			LIFD			LHPS			LHTS			RSHO			RUPA			RAEL			RAOL			RWTS			RWPS			RFRA			RIFD			RHTS			RHPS			RBHD			LFHD			RFHD			LBHD			LHIP			RHIP			RASI			LASI			LKNE			LTHI			LANK			LTIP			LTOE			LMT1			LMT5			LHEE			RKNE			RTHI			RANK			RTIP			RTOE			RMT1			RMT5			RHEE			
		X1	Y1	Z1	X2	Y2	Z2	X3	Y3	Z3	X4	Y4	Z4	X5	Y5	Z5	X6	Y6	Z6	X7	Y7	Z7	X8	Y8	Z8	X9	Y9	Z9	X10	Y10	Z10	X11	Y11	Z11	X12	Y12	Z12	X13	Y13	Z13	X14	Y14	Z14	X15	Y15	Z15	X16	Y16	Z16	X17	Y17	Z17	X18	Y18	Z18	X19	Y19	Z19	X20	Y20	Z20	X21	Y21	Z21	X22	Y22	Z22	X23	Y23	Z23	X24	Y24	Z24	X25	Y25	Z25	X26	Y26	Z26	X27	Y27	Z27	X28	Y28	Z28	X29	Y29	Z29	X30	Y30	Z30	X31	Y31	Z31	X32	Y32	Z32	X33	Y33	Z33	X34	Y34	Z34	X35	Y35	Z35	X36	Y36	Z36	X37	Y37	Z37	X38	Y38	Z38	X39	Y39	Z39	X40	Y40	Z40	X41	Y41	Z41	X42	Y42	Z42	X43	Y43	Z43	X44	Y44	Z44	X45	Y45	Z45	X46	Y46	Z46	X47	Y47	Z47	X48	Y48	Z48	X49	Y49	Z49	X50	Y50	Z50	X51	Y51	Z51	X52	Y52	Z52	X53	Y53	Z53	

307	3.06	369.9493713378906	906.4259643554688	520.525146484375	439.9893188476562	914.4202880859375	396.8169250488281	410.1411743164062	1006.776000976562	468.9573669433594	637.7175903320312	1203.7119140625	614.4534912109375	395.530517578125	1129.916625976562	455.8257446289062	436.1368713378906	1397.275024414062	510.2904968261719	602.7564086914062	1317.401245117188	597.075927734375	337.6286010742188	1271.339599609375	549.7325439453125	465.3009338378906	1356.90185546875	406.5803833007812	595.325439453125	1380.712524414062	400.0298461914062	648.14794921875	1265.740966796875	311.945556640625	707.254638671875	1056.733764648438	293.808349609375	607.2430419921875	1030.569946289062	302.5326538085938	767.9032592773438	859.3804321289062	375.8446350097656	766.2257690429688	845.2703247070312	303.7001037597656	738.823974609375	971.7305908203125	297.745849609375	803.22705078125	696.9058837890625	375.125	784.2063598632812	767.5316772460938	309.0478820800781	798.4708862304688	776.4178466796875	377.8972778320312	408.4523315429688	1357.011840820312	682.478759765625	352.9643859863281	1291.58203125	732.5226440429688	317.6355895996094	1004.590759277344	760.6135864257812	293.6488647460938	995.4227294921875	697.4750366210938	409.1957092285156	793.3359375	759.4856567382812	322.73828125	785.4454345703125	770.7969360351562	310.6394653320312	945.9130249023438	766.670654296875	391.3086242675781	635.6661987304688	750.67529296875	406.1504516601562	692.4238891601562	767.6277465820312	330.2981872558594	696.8462524414062	769.5579223632812	445.7348327636719	1593.588012695312	620.9070434570312	644.33349609375	1620.250732421875	571.008544921875	569.7081909179688	1620.167236328125	678.197509765625	534.7946166992188	1597.927490234375	467.1502380371094	605.637451171875	809.4015502929688	349.2349548339844	428.9562377929688	817.230224609375	710.48486328125	538.5794677734375	870.0791015625	688.9481811523438	661.4214477539062	845.1480712890625	466.1794738769531	523.1417236328125	395.5439453125	330.6353759765625	589.4935913085938	541.6778564453125	356.0807189941406	217.1316833496094	127.3596725463867	165.1261749267578	426.0163269042969	284.2774658203125	261.4604187011719	292.609619140625	35.43557357788086	343.0468139648438	244.5631103515625	66.27204132080078	325.3790588378906	297.1116027832031	38.12744140625	233.2743225097656	174.414306640625	183.8511505126953	179.2943725585938	608.650390625	455.5294799804688	745.35791015625	502.7599792480469	699.1813354492188	754.4229125976562	631.27783203125	37.19384765625	716.9761352539062	628.2415771484375	308.4346923828125	756.9974365234375	838.9913330078125	40.44058990478516	793.8743286132812	803.1641845703125	44.02472686767578	730.6820068359375	729.1459350585938	41.16492080688477	809.6365966796875	600.2755737304688	29.47241592407227	642.8202514648438	
308	3.07	379.1109008789062	907.9278564453125	528.681884765625	449.0137023925781	914.8646850585938	404.708740234375	419.0935668945312	1008.580688476562	477.1448974609375	646.7849731445312	1205.976196289062	621.9701538085938	404.5928039550781	1131.60888671875	464.0447692871094	444.6570739746094	1399.020385742188	518.0078125	611.6743774414062	1319.591430664062	604.5226440429688	346.4967956542969	1272.982788085938	558.0675048828125	473.7245178222656	1358.720336914062	414.3656005859375	603.8571166992188	1382.811157226562	407.5127258300781	655.9146118164062	1267.678466796875	319.22607421875	711.3404541015625	1057.51025390625	300.132568359375	610.947509765625	1033.24658203125	310.5650329589844	768.5331420898438	856.5195922851562	377.4383850097656	764.968017578125	844.1907958984375	304.986328125	740.9667358398438	971.7130126953125	302.1250610351562	797.5235595703125	692.6832275390625	371.8179016113281	779.8411865234375	765.677490234375	308.1198120117188	795.802490234375	772.1505126953125	376.8826904296875	417.5466918945312	1359.175415039062	690.3253784179688	362.4856872558594	1293.849731445312	740.8922119140625	328.4631652832031	1006.7080078125	769.9301147460938	304.1079406738281	997.3946533203125	706.90576171875	420.3353576660156	795.3228149414062	768.382568359375	333.82861328125	787.5831298828125	780.6312866210938	321.7284851074219	948.061767578125	776.0711669921875	401.8929138183594	637.6187744140625	759.2579956054688	416.8832092285156	694.2415161132812	776.1282348632812	341.3056335449219	698.9613647460938	778.8397827148438	454.0357666015625	1595.263305664062	628.867919921875	652.6331176757812	1622.15673828125	578.8614501953125	578.0896606445312	1621.805297851562	686.17578125	543.0992431640625	1600.026245117188	475.0353698730469	615.4859619140625	809.7966918945312	358.1555786132812	438.2273559570312	818.5481567382812	718.5960693359375	547.65087890625	871.39501953125	697.1039428710938	670.891845703125	847.0708618164062	474.7118530273438	543.0084228515625	394.5325622558594	340.3755798339844	606.4763793945312	541.5335693359375	365.7704162597656	228.8192596435547	137.4804840087891	170.0546417236328	443.2281188964844	286.6329040527344	269.146484375	296.6743774414062	34.13075637817383	344.8139953613281	252.1358184814453	70.688232421875	329.0993041992188	301.1081237792969	39.85890197753906	236.040771484375	190.2215423583984	196.4960632324219	186.0834197998047	616.03955078125	455.5671997070312	750.1544799804688	512.2024536132812	699.921142578125	761.5057373046875	631.6367797851562	37.51680374145508	716.9015502929688	633.2044677734375	308.077880859375	759.9414672851562	839.5514526367188	39.61091995239258	793.3405151367188	803.5740356445312	43.46411895751953	730.3137817382812	729.542236328125	41.43120574951172	809.5010986328125	600.3765869140625	29.71025848388672	642.8960571289062	
309	3.08	387.9922180175781	909.5286865234375	536.7940673828125	457.5671997070312	915.1820678710938	412.4613647460938	427.6839904785156	1010.447509765625	485.2754516601562	655.7407836914062	1208.193969726562	629.2283325195312	413.5426940917969	1133.387329101562	472.3055419921875	453.1021423339844	1400.8447265625	525.571533203125	620.518310546875	1321.760009765625	611.7623901367188	355.2559814453125	1274.710693359375	566.2726440429688	482.0234985351562	1360.5947265625	422.0057373046875	612.2702026367188	1384.914672851562	414.8030090332031	663.5725708007812	1269.652099609375	326.3031311035156	715.5282592773438	1058.478759765625	306.286376953125	614.802978515625	1036.011108398438	318.2619934082031	769.15234375	854.0626220703125	379.0357971191406	763.9132690429688	843.5513916015625	306.3370361328125	743.23974609375	972.01318359375	306.4309997558594	791.3704833984375	689.153076171875	368.7126159667969	775.4560546875	764.3797607421875	307.3623352050781	792.865478515625	768.38916015625	375.9884033203125	426.5827026367188	1361.453735351562	697.9968872070312	371.8908996582031	1296.284423828125	749.09375	339.1077880859375	1008.967041015625	779.2723999023438	314.4089965820312	999.4387817382812	716.3558959960938	431.6373291015625	797.6364135742188	777.4306640625	345.1554870605469	789.8589477539062	790.6354370117188	332.7261047363281	950.35302734375	785.5184936523438	412.9746704101562	639.8580322265625	768.1466064453125	428.0050048828125	696.3978271484375	784.87548828125	352.7040405273438	701.2597045898438	788.3612670898438	462.276123046875	1596.999877929688	636.6578369140625	660.8806762695312	1624.116821289062	586.5551147460938	586.4113159179688	1623.497436523438	693.9873046875	551.3602294921875	1602.190673828125	482.7613220214844	624.9876098632812	810.1707763671875	366.8278198242188	447.2266845703125	819.826416015625	726.5061645507812	556.6220092773438	872.5167846679688	705.0487060546875	680.132080078125	849.0178833007812	482.9070434570312	563.4121704101562	393.603515625	350.63720703125	623.6673583984375	541.5009155273438	375.4815063476562	241.9788665771484	147.9546966552734	175.7437133789062	461.197509765625	288.8916015625	277.6870422363281	302.3352661132812	32.75547027587891	347.3455810546875	261.4048156738281	75.8404541015625	333.702392578125	306.7178344726562	42.50386047363281	239.5768280029297	207.1361083984375	208.9283905029297	193.4053344726562	622.43994140625	455.2983093261719	754.5066528320312	521.0008544921875	700.4223022460938	768.2794189453125	631.8876342773438	37.72731399536133	716.819091796875	637.3357543945312	307.5793762207031	762.5862426757812	839.860595703125	39.27775955200195	792.9960327148438	803.8054809570312	43.20182800292969	730.0784301757812	729.7649536132812	41.67903518676758	809.3906860351562	600.4376831054688	29.86245155334473	642.9151000976562	
310	3.09	396.6336059570312	911.2811889648438	544.747314453125	465.7377014160156	915.4013061523438	420.0028381347656	435.9579467773438	1012.386169433594	493.3409423828125	664.5931396484375	1210.320068359375	636.2168579101562	422.2821960449219	1135.251342773438	480.5467224121094	461.4738464355469	1402.728393554688	532.9871826171875	629.2933959960938	1323.86474609375	618.7816772460938	363.9055480957031	1276.511108398438	574.3524169921875	490.1936645507812	1362.505249023438	429.5011596679688	620.543212890625	1386.983154296875	421.8832092285156	671.0701904296875	1271.600708007812	333.1523742675781	719.8402099609375	1059.597045898438	312.2562561035156	618.8260498046875	1038.80908203125	325.5485229492188	769.812744140625	852.0028076171875	380.6938171386719	763.1799926757812	843.30517578125	307.8004760742188	745.6965942382812	972.5867309570312	310.6746826171875	784.913818359375	686.3380737304688	365.9425659179688	771.2277221679688	763.6043090820312	306.8555908203125	789.7654418945312	765.14990234375	375.3154602050781	435.5780944824219	1363.79296875	705.503173828125	381.1978454589844	1298.825439453125	757.1283569335938	349.5535583496094	1011.316955566406	788.6287841796875	324.5173645019531	1001.505798339844	725.8201904296875	443.0904235839844	800.2482299804688	786.6312255859375	356.7179870605469	792.2142944335938	800.7695922851562	343.6040649414062	952.7361450195312	795.0004272460938	424.5986938476562	642.3564453125	777.36962890625	439.5551452636719	698.87890625	793.9009399414062	364.505126953125	703.69189453125	798.1294555664062	470.4597778320312	1598.770141601562	644.260986328125	669.0699462890625	1626.109985351562	594.0723876953125	594.6727294921875	1625.234130859375	701.611328125	559.5638427734375	1604.378173828125	490.3133239746094	634.1688232421875	810.5018310546875	375.2292175292969	455.9364013671875	821.15625	734.1400756835938	565.4617309570312	873.5399169921875	712.722900390625	689.162841796875	850.9374389648438	490.7426147460938	584.1758422851562	392.8537902832031	361.3871459960938	640.9491577148438	541.6240844726562	385.2132568359375	256.556396484375	158.5891265869141	182.3134918212891	479.7273864746094	291.0925903320312	287.0723876953125	309.9009094238281	31.52658462524414	350.7123107910156	272.5417785644531	81.51371002197266	339.2275085449219	314.3866577148438	46.1600341796875	243.9641265869141	224.8003234863281	220.8768310546875	201.393798828125	627.9046630859375	454.8460388183594	758.4966430664062	529.1345825195312	700.8140869140625	774.7194213867188	632.0442504882812	37.84401321411133	716.7503051757812	640.703125	307.0013122558594	765.015380859375	840.0017700195312	39.22652053833008	792.822021484375	803.9105834960938	43.13617324829102	729.9854125976562	729.8479614257812	41.86553955078125	809.333740234375	600.4680786132812	29.96115112304688	642.9072265625	
